<?xml version="1.0" encoding="UTF-8"?>
<svg width="33px" height="33px" viewBox="0 0 33 33" version="1.1" xmlns="http://www.w3.org/2000/svg" xmlns:xlink="http://www.w3.org/1999/xlink">
    <!-- Generator: Sketch 46.2 (44496) - http://www.bohemiancoding.com/sketch -->
    <title>facebook</title>
    <desc>Created with Sketch.</desc>
    <defs></defs>
    <g id="Symbols" stroke="none" stroke-width="1" fill="none" fill-rule="evenodd">
        <g id="Footer" transform="translate(-803.000000, -40.000000)" fill="#FEFEFE">
            <g id="facebook">
                <g transform="translate(803.000000, 40.000000)">
                    <path d="M31.1787151,0 L1.82128485,0 C0.815312446,0 0,0.815309391 0,1.82127803 L0,31.1785983 C0,32.1844433 0.815312446,33 1.82128485,33 L17.6264022,33 L17.6264022,20.2206373 L13.325796,20.2206373 L13.325796,15.2402518 L17.6264022,15.2402518 L17.6264022,11.5674029 C17.6264022,7.30514247 20.2296155,4.98421851 24.031934,4.98421851 C25.8533425,4.98421851 27.4186831,5.11973248 27.874808,5.1803181 L27.874808,9.63472152 L25.2377161,9.63595796 C23.1698839,9.63595796 22.7693991,10.6185579 22.7693991,12.0604957 L22.7693991,15.2402518 L27.701211,15.2402518 L27.0591246,20.2206373 L22.7693991,20.2206373 L22.7693991,33 L31.1787151,33 C32.1845639,33 33,32.1844433 33,31.1785983 L33,1.82127803 C33,0.815309391 32.1845639,0 31.1787151,0" id="Fill-1"></path>
                </g>
            </g>
        </g>
    </g>
</svg>