<?xml version="1.0" encoding="UTF-8"?>
<svg width="33px" height="33px" viewBox="0 0 33 33" version="1.1" xmlns="http://www.w3.org/2000/svg" xmlns:xlink="http://www.w3.org/1999/xlink">
    <!-- Generator: Sketch 46.2 (44496) - http://www.bohemiancoding.com/sketch -->
    <title>instagram</title>
    <desc>Created with Sketch.</desc>
    <defs></defs>
    <g id="Symbols" stroke="none" stroke-width="1" fill="none" fill-rule="evenodd">
        <g id="Footer" transform="translate(-669.000000, -40.000000)" fill="#FFFFFF">
            <g id="instagram">
                <g transform="translate(669.000000, 40.000000)">
                    <g id="Group-3">
                        <path d="M16.4947946,0.0104172619 C12.0151101,0.0104172619 11.4533244,0.0294053571 9.69404464,0.109679167 C7.9383006,0.189756548 6.7393006,0.468619643 5.69004464,0.876405357 C4.60543155,1.2978756 3.68549107,1.8618875 2.76849702,2.77888155 C1.8514375,3.69594107 1.28749107,4.61581607 0.865955357,5.70042917 C0.458169643,6.74968512 0.179372024,7.94868512 0.0992291667,9.70442917 C0.0189553571,11.4637744 3.27380952e-05,12.0254292 3.27380952e-05,16.5051792 C3.27380952e-05,20.9849292 0.0189553571,21.5466494 0.0992291667,23.3059946 C0.179372024,25.0616732 0.458169643,26.2607387 0.865955357,27.3099292 C1.28749107,28.3945423 1.8514375,29.3144827 2.76849702,30.2314768 C3.68549107,31.1485363 4.60543155,31.7124827 5.69004464,32.1340839 C6.7393006,32.5418042 7.9383006,32.8206673 9.69404464,32.9008101 C11.4533244,32.9810185 12.0151101,33.0000065 16.4947946,33.0000065 C20.9745446,33.0000065 21.5361994,32.9810185 23.2955446,32.9008101 C25.0512887,32.8206673 26.2502887,32.5418042 27.2995446,32.1340839 C28.3842232,31.7124827 29.3040982,31.1485363 30.2210923,30.2314768 C31.1381518,29.3144827 31.7020982,28.3946077 32.1236339,27.3099292 C32.5314196,26.2607387 32.8102827,25.0616732 32.8903601,23.3059946 C32.9706339,21.5466494 32.989622,20.9849292 32.989622,16.5051792 C32.989622,12.0254946 32.9706339,11.4637744 32.8903601,9.70442917 C32.8102827,7.94868512 32.5314196,6.74968512 32.1236339,5.70042917 C31.7020982,4.61581607 31.1381518,3.69594107 30.2210923,2.77888155 C29.3040982,1.8618875 28.3842232,1.2978756 27.2995446,0.876405357 C26.2502887,0.468619643 25.0512887,0.189756548 23.2955446,0.109679167 C21.5361994,0.0294053571 20.9745446,0.0104172619 16.4947946,0.0104172619 M16.4947946,2.98244702 C20.8991161,2.98244702 21.4207649,2.99920893 23.1600744,3.07856607 C24.7683006,3.15196488 25.6416875,3.42067917 26.2229196,3.64657202 C26.9928542,3.94579821 27.5423958,4.30323274 28.1195685,4.88040536 C28.6967411,5.45764345 29.0541756,6.00711964 29.3534673,6.77705417 C29.5792946,7.35828631 29.8480089,8.23167321 29.9214077,9.8398994 C30.0006994,11.5792089 30.0175268,12.1009232 30.0175268,16.5051792 C30.0175268,20.9095006 30.0006994,21.4312149 29.9214077,23.1704589 C29.8480089,24.7787506 29.5792946,25.6521375 29.3534673,26.2333696 C29.0541756,27.0032387 28.6967411,27.5527804 28.1195685,28.129953 C27.5423958,28.7071911 26.9928542,29.0646256 26.2229196,29.3638518 C25.6416875,29.5896792 24.7683006,29.8584589 23.1600744,29.9317923 C21.4210268,30.0111494 20.8994435,30.0279768 16.4947946,30.0279768 C12.0901458,30.0279768 11.5685625,30.0111494 9.82951488,29.9317923 C8.22128869,29.8584589 7.34783631,29.5896792 6.76660417,29.3638518 C5.99673512,29.0646256 5.44719345,28.7071911 4.87002083,28.129953 C4.29284821,27.5527804 3.93534821,27.0032387 3.63612202,26.2333696 C3.41029464,25.6521375 3.14158036,24.7787506 3.06818155,23.1705244 C2.9888244,21.4312149 2.9720625,20.9095006 2.9720625,16.5051792 C2.9720625,12.1009232 2.9888244,11.5792089 3.06818155,9.8398994 C3.14158036,8.23167321 3.41029464,7.35828631 3.63612202,6.77705417 C3.93534821,6.00711964 4.29284821,5.45764345 4.87002083,4.88047083 C5.44719345,4.30323274 5.99673512,3.94579821 6.76660417,3.64657202 C7.34783631,3.42067917 8.22128869,3.15196488 9.8294494,3.07856607 C11.5688244,2.99920893 12.0904732,2.98244702 16.4947946,2.98244702" id="Fill-1"></path>
                    </g>
                    <path d="M17.0000348,22.8421089 C13.7735468,22.8421089 11.1578911,20.2264532 11.1578911,16.9999652 C11.1578911,13.7734773 13.7735468,11.1578911 17.0000348,11.1578911 C20.2265227,11.1578911 22.8421785,13.7734773 22.8421785,16.9999652 C22.8421785,20.2264532 20.2265227,22.8421089 17.0000348,22.8421089 M17.0000348,8 C12.0294749,8 8,12.0294053 8,16.9999652 C8,21.9705947 12.0294749,26 17.0000348,26 C21.9705947,26 26,21.9705947 26,16.9999652 C26,12.0294053 21.9705947,8 17.0000348,8" id="Fill-4"></path>
                    <path d="M27,8 C27,9.10459808 26.1046129,10 25.0000331,10 C23.8954533,10 23,9.10459808 23,8 C23,6.89540192 23.8954533,6 25.0000331,6 C26.1046129,6 27,6.89540192 27,8" id="Fill-6"></path>
                </g>
            </g>
        </g>
    </g>
</svg>