<?xml version="1.0" encoding="UTF-8"?>
<svg width="26px" height="26px" viewBox="0 0 26 26" version="1.1" xmlns="http://www.w3.org/2000/svg" xmlns:xlink="http://www.w3.org/1999/xlink">
    <!-- Generator: Sketch 46.2 (44496) - http://www.bohemiancoding.com/sketch -->
    <title>menu-close</title>
    <desc>Created with Sketch.</desc>
    <defs></defs>
    <g id="Page-1" stroke="none" stroke-width="1" fill="none" fill-rule="evenodd">
        <g id="menu-close" fill-rule="nonzero" fill="#FFFFFF">
            <path d="M4.02329708,4.02329708 C-0.858248784,8.90521058 -0.858248784,16.8194324 4.02329708,21.7009783 C8.90484294,26.5825241 16.8194324,26.5825241 21.7009783,21.7009783 C26.5825241,16.8194324 26.5825241,8.90521058 21.7009783,4.02329708 C16.8194324,-0.858248784 8.90484294,-0.858248784 4.02329708,4.02329708 Z M19.726375,19.726375 C15.9415042,23.5116134 9.78313884,23.5116134 5.99790039,19.726375 C2.21302958,15.9411365 2.21266194,9.7827712 5.99790039,5.99790039 C9.78313884,2.21266194 15.9411365,2.21302958 19.726375,5.99790039 C23.5116134,9.78313884 23.5116134,15.9411365 19.726375,19.726375 Z M9.77358016,7.79934449 L7.79897685,9.7739478 L10.8875344,12.8621377 L7.79897685,15.9503276 L9.77358016,17.9249309 L12.8621377,14.836741 L15.9503276,17.9249309 L17.9249309,15.9503276 L14.836741,12.8621377 L17.9249309,9.77358016 L15.9503276,7.79897685 L12.8621377,10.8875344 L9.77358016,7.79934449 Z" id="Shape"></path>
        </g>
    </g>
</svg>