<?xml version="1.0" encoding="UTF-8"?>
<svg width="25px" height="25px" viewBox="0 0 25 25" version="1.1" xmlns="http://www.w3.org/2000/svg" xmlns:xlink="http://www.w3.org/1999/xlink">
    <!-- Generator: Sketch 46.2 (44496) - http://www.bohemiancoding.com/sketch -->
    <title>Shape</title>
    <desc>Created with Sketch.</desc>
    <defs></defs>
    <g id="Page-1" stroke="none" stroke-width="1" fill="none" fill-rule="evenodd">
        <path d="M3.6611594,3.6611594 C-1.22038647,8.5430729 -1.22038647,16.4572947 3.6611594,21.3388406 C8.54270526,26.2203864 16.4572947,26.2203864 21.3388406,21.3388406 C26.2203864,16.4572947 26.2203864,8.5430729 21.3388406,3.6611594 C16.4572947,-1.22038647 8.54270526,-1.22038647 3.6611594,3.6611594 Z M19.3642373,19.3642373 C15.5793665,23.1494757 9.42100116,23.1494757 5.63576271,19.3642373 C1.8508919,15.5789988 1.85052426,9.42063352 5.63576271,5.63576271 C9.42100116,1.85052426 15.5789988,1.8508919 19.3642373,5.63576271 C23.1494757,9.42100116 23.1494757,15.5789988 19.3642373,19.3642373 Z M7,8 L7,10 L18,10 L18,8 L7,8 Z M7,12 L7,14 L18,14 L18,12 L7,12 Z M7,16 L7,18 L18,18 L18,16 L7,16 Z" id="Shape" fill="#000000" fill-rule="nonzero"></path>
    </g>
</svg>