<?xml version="1.0" encoding="UTF-8"?>
<svg width="38px" height="31px" viewBox="0 0 38 31" version="1.1" xmlns="http://www.w3.org/2000/svg" xmlns:xlink="http://www.w3.org/1999/xlink">
    <!-- Generator: Sketch 46.2 (44496) - http://www.bohemiancoding.com/sketch -->
    <title>twitter</title>
    <desc>Created with Sketch.</desc>
    <defs>
        <polygon id="path-1" points="0 0 38 0 38 31 0 31"></polygon>
    </defs>
    <g id="Symbols" stroke="none" stroke-width="1" fill="none" fill-rule="evenodd">
        <g id="Footer" transform="translate(-595.000000, -42.000000)">
            <g id="twitter">
                <g transform="translate(595.000000, 42.000000)">
                    <mask id="mask-2" fill="white">
                        <use xlink:href="#path-1"></use>
                    </mask>
                    <g id="Clip-2"></g>
                    <path d="M11.9367747,31 C26.2761104,31 34.122449,19.0700344 34.122449,8.74178642 C34.122449,8.40600394 34.122449,8.07037402 34.1072429,7.73474409 C35.6278511,6.6363189 36.9507803,5.2480315 38,3.67667323 C36.6010404,4.30216535 35.0956383,4.7140748 33.5142057,4.91240157 C35.1260504,3.95127953 36.3577431,2.41058563 36.9507803,0.579876969 C35.4453782,1.47982283 33.7727091,2.12057087 31.9935974,2.47145669 C30.5642257,0.945866142 28.5418167,0 26.3065226,0 C22.0032013,0 18.5058023,3.50885827 18.5058023,7.82643209 C18.5058023,8.43666831 18.5818327,9.03149606 18.7034814,9.61122047 C12.2256903,9.29084646 6.47779112,6.16338583 2.63065226,1.43405512 C1.96158463,2.59350394 1.58143257,3.93617618 1.58143257,5.37007874 C1.58143257,8.08562992 2.96518607,10.4808071 5.04841937,11.8843504 C3.77110844,11.8385827 2.56982793,11.4878494 1.52060824,10.9079724 L1.52060824,11.0147638 C1.52060824,14.7982283 4.21208483,17.9716093 7.77030812,18.6886368 C7.11644658,18.8715551 6.43217287,18.9632431 5.71748699,18.9632431 C5.21568627,18.9632431 4.72909164,18.9174754 4.25770308,18.8257874 C5.24609844,21.9381447 8.1352541,24.1958661 11.5414166,24.2570423 C8.86514606,26.3623573 5.50460184,27.6133415 1.85514206,27.6133415 C1.23169268,27.6133415 0.608243297,27.5828297 0,27.5065502 C3.43657463,29.703248 7.54221689,31 11.9367747,31" id="Fill-1" fill="#FFFFFF" mask="url(#mask-2)"></path>
                </g>
            </g>
        </g>
    </g>
</svg>